<?xml version="1.0" encoding="UTF-8" standalone="no"?>
<svg
   xmlns:dc="http://purl.org/dc/elements/1.1/"
   xmlns:cc="http://creativecommons.org/ns#"
   xmlns:rdf="http://www.w3.org/1999/02/22-rdf-syntax-ns#"
   xmlns:svg="http://www.w3.org/2000/svg"
   xmlns="http://www.w3.org/2000/svg"
   xmlns:xlink="http://www.w3.org/1999/xlink"
   xmlns:sodipodi="http://sodipodi.sourceforge.net/DTD/sodipodi-0.dtd"
   xmlns:inkscape="http://www.inkscape.org/namespaces/inkscape"
   inkscape:version="1.0.2-2 (e86c870879, 2021-01-15)"
   sodipodi:docname="drawing.svg"
   id="svg8"
   version="1.1"
   viewBox="0 0 210 297"
   height="297mm"
   width="210mm">
  <defs
     id="defs2">
    <linearGradient
       inkscape:collect="always"
       id="linearGradient2878">
      <stop
         style="stop-color:#ffffff;stop-opacity:1;"
         offset="0"
         id="stop2874" />
      <stop
         style="stop-color:#ffffff;stop-opacity:0;"
         offset="1"
         id="stop2876" />
    </linearGradient>
    <linearGradient
       inkscape:collect="always"
       id="linearGradient2870">
      <stop
         style="stop-color:#c3f8fa;stop-opacity:1;"
         offset="0"
         id="stop2866" />
      <stop
         style="stop-color:#c3f8fa;stop-opacity:0;"
         offset="1"
         id="stop2868" />
    </linearGradient>
    <linearGradient
       inkscape:collect="always"
       id="linearGradient2862">
      <stop
         style="stop-color:#89f2f6;stop-opacity:1;"
         offset="0"
         id="stop2858" />
      <stop
         style="stop-color:#89f2f6;stop-opacity:0;"
         offset="1"
         id="stop2860" />
    </linearGradient>
    <linearGradient
       inkscape:collect="always"
       id="linearGradient2854">
      <stop
         style="stop-color:#4eecf2;stop-opacity:1;"
         offset="0"
         id="stop2850" />
      <stop
         style="stop-color:#4eecf2;stop-opacity:0;"
         offset="1"
         id="stop2852" />
    </linearGradient>
    <linearGradient
       inkscape:collect="always"
       id="linearGradient2186">
      <stop
         style="stop-color:#ffffff;stop-opacity:1;"
         offset="0"
         id="stop2182" />
      <stop
         style="stop-color:#ffffff;stop-opacity:0;"
         offset="1"
         id="stop2184" />
    </linearGradient>
    <linearGradient
       inkscape:collect="always"
       id="linearGradient2178">
      <stop
         style="stop-color:#5c5ef3;stop-opacity:1;"
         offset="0"
         id="stop2174" />
      <stop
         style="stop-color:#5c5ef3;stop-opacity:0;"
         offset="1"
         id="stop2176" />
    </linearGradient>
    <linearGradient
       inkscape:collect="always"
       id="linearGradient2170">
      <stop
         style="stop-color:#5557d6;stop-opacity:1;"
         offset="0"
         id="stop2166" />
      <stop
         style="stop-color:#5557d6;stop-opacity:0;"
         offset="1"
         id="stop2168" />
    </linearGradient>
    <linearGradient
       inkscape:collect="always"
       id="linearGradient2162">
      <stop
         style="stop-color:#0004c2;stop-opacity:1;"
         offset="0"
         id="stop2158" />
      <stop
         style="stop-color:#0004c2;stop-opacity:0;"
         offset="1"
         id="stop2160" />
    </linearGradient>
    <linearGradient
       inkscape:collect="always"
       id="linearGradient921-2">
      <stop
         style="stop-color:#84e4ff;stop-opacity:1;"
         offset="0"
         id="stop917" />
      <stop
         style="stop-color:#84e4ff;stop-opacity:0;"
         offset="1"
         id="stop919" />
    </linearGradient>
    <linearGradient
       inkscape:collect="always"
       id="linearGradient913">
      <stop
         style="stop-color:#0000ff;stop-opacity:1;"
         offset="0"
         id="stop909" />
      <stop
         style="stop-color:#0000ff;stop-opacity:0;"
         offset="1"
         id="stop911" />
    </linearGradient>
    <inkscape:path-effect
       effect="bend_path"
       id="path-effect860"
       is_visible="true"
       lpeversion="1"
       bendpath="m -355.84159,-185.363 c 452.205389,-20.36998 790.90161,-12.45668 1111.36388,0"
       prop_scale="1"
       scale_y_rel="false"
       vertical="false"
       hide_knot="false"
       bendpath-nodetypes="cc" />
    <inkscape:path-effect
       effect="bend_path"
       id="path-effect858"
       is_visible="true"
       lpeversion="1"
       bendpath="M 505.22205,-185.363 H 631.16939"
       prop_scale="1"
       scale_y_rel="false"
       vertical="false"
       hide_knot="false" />
    <inkscape:path-effect
       effect="bend_path"
       id="path-effect856"
       is_visible="true"
       lpeversion="1"
       bendpath="M -355.84159,-185.363 H 755.52229"
       prop_scale="1"
       scale_y_rel="false"
       vertical="false"
       hide_knot="false" />
    <linearGradient
       inkscape:collect="always"
       xlink:href="#linearGradient913"
       id="linearGradient915"
       x1="-175.21014"
       y1="-134.55952"
       x2="153.28751"
       y2="-133.04762"
       gradientUnits="userSpaceOnUse"
       gradientTransform="translate(-201.83929,-15.119048)" />
    <linearGradient
       inkscape:collect="always"
       xlink:href="#linearGradient921-2"
       id="linearGradient923"
       x1="-377.04944"
       y1="-149.67857"
       x2="-48.551777"
       y2="-148.16667"
       gradientUnits="userSpaceOnUse" />
    <linearGradient
       inkscape:collect="always"
       xlink:href="#linearGradient913"
       id="linearGradient1089"
       gradientUnits="userSpaceOnUse"
       gradientTransform="translate(-723.82439,-15.874991)"
       x1="-175.21014"
       y1="-134.55952"
       x2="153.28751"
       y2="-133.04762" />
    <filter
       inkscape:collect="always"
       style="color-interpolation-filters:sRGB"
       id="filter1922"
       x="-0.042220417"
       width="1.0844408"
       y="-0.22209699"
       height="1.444194">
      <feGaussianBlur
         inkscape:collect="always"
         stdDeviation="6.7157891"
         id="feGaussianBlur1924" />
    </filter>
    <filter
       inkscape:collect="always"
       style="color-interpolation-filters:sRGB"
       id="filter2026"
       x="-0.013959083"
       width="1.0279182"
       y="-0.073431997"
       height="1.146864">
      <feGaussianBlur
         inkscape:collect="always"
         stdDeviation="2.2204306"
         id="feGaussianBlur2028" />
    </filter>
    <filter
       inkscape:collect="always"
       style="color-interpolation-filters:sRGB"
       id="filter2086"
       x="-0.0037998375"
       width="1.0075997"
       y="-0.019988731"
       height="1.0399775">
      <feGaussianBlur
         inkscape:collect="always"
         stdDeviation="0.6044259"
         id="feGaussianBlur2088" />
    </filter>
    <linearGradient
       inkscape:collect="always"
       xlink:href="#linearGradient2162"
       id="linearGradient2164"
       x1="-1393.841"
       y1="-435.22172"
       x2="-1047.3372"
       y2="-435.22171"
       gradientUnits="userSpaceOnUse" />
    <linearGradient
       inkscape:collect="always"
       xlink:href="#linearGradient2170"
       id="linearGradient2172"
       x1="-1383.0547"
       y1="-435.22172"
       x2="-1047.3372"
       y2="-435.22171"
       gradientUnits="userSpaceOnUse" />
    <linearGradient
       inkscape:collect="always"
       xlink:href="#linearGradient2178"
       id="linearGradient2180"
       x1="-1379.1753"
       y1="-435.22172"
       x2="-1047.3372"
       y2="-435.22171"
       gradientUnits="userSpaceOnUse" />
    <linearGradient
       inkscape:collect="always"
       xlink:href="#linearGradient2186"
       id="linearGradient2188"
       x1="-1380.5761"
       y1="-435.22172"
       x2="-1047.3372"
       y2="-435.22171"
       gradientUnits="userSpaceOnUse" />
    <filter
       inkscape:collect="always"
       style="color-interpolation-filters:sRGB"
       id="filter2684"
       x="-0.067116025"
       width="1.1342321"
       y="-0.31841096"
       height="1.6368219">
      <feGaussianBlur
         inkscape:collect="always"
         stdDeviation="12.197887"
         id="feGaussianBlur2686" />
    </filter>
    <filter
       inkscape:collect="always"
       style="color-interpolation-filters:sRGB"
       id="filter2780"
       x="-0.031954007"
       width="1.063908"
       y="-0.15159394"
       height="1.3031879">
      <feGaussianBlur
         inkscape:collect="always"
         stdDeviation="5.8073745"
         id="feGaussianBlur2782" />
    </filter>
    <filter
       inkscape:collect="always"
       style="color-interpolation-filters:sRGB"
       id="filter2808"
       x="-0.0026846359"
       width="1.0053693"
       y="-0.012736552"
       height="1.0254731">
      <feGaussianBlur
         inkscape:collect="always"
         stdDeviation="0.4879214"
         id="feGaussianBlur2810" />
    </filter>
    <linearGradient
       inkscape:collect="always"
       xlink:href="#linearGradient2854"
       id="linearGradient2856"
       x1="-1472.5304"
       y1="-488.33694"
       x2="-1040.3754"
       y2="-488.33694"
       gradientUnits="userSpaceOnUse" />
    <linearGradient
       inkscape:collect="always"
       xlink:href="#linearGradient2862"
       id="linearGradient2864"
       x1="-1457.1912"
       y1="-488.33694"
       x2="-1040.3754"
       y2="-488.33694"
       gradientUnits="userSpaceOnUse" />
    <linearGradient
       inkscape:collect="always"
       xlink:href="#linearGradient2870"
       id="linearGradient2872"
       x1="-1444.4296"
       y1="-488.33694"
       x2="-1040.3754"
       y2="-488.33694"
       gradientUnits="userSpaceOnUse" />
    <linearGradient
       inkscape:collect="always"
       xlink:href="#linearGradient2878"
       id="linearGradient2880"
       x1="-1448.5471"
       y1="-488.33695"
       x2="-1040.3754"
       y2="-488.33694"
       gradientUnits="userSpaceOnUse" />
  </defs>
  <sodipodi:namedview
     id="base"
     pagecolor="#eaeaec"
     bordercolor="#666666"
     borderopacity="1.0"
     inkscape:pageopacity="0"
     inkscape:pageshadow="2"
     inkscape:zoom="0.24748737"
     inkscape:cx="-4570.2978"
     inkscape:cy="-2076.6953"
     inkscape:document-units="px"
     inkscape:current-layer="layer1"
     inkscape:document-rotation="0"
     showgrid="false"
     inkscape:pagecheckerboard="false"
     inkscape:window-width="1920"
     inkscape:window-height="1001"
     inkscape:window-x="-9"
     inkscape:window-y="-9"
     inkscape:window-maximized="1" />
  <metadata
     id="metadata5">
    <rdf:RDF>
      <cc:Work
         rdf:about="">
        <dc:format>image/svg+xml</dc:format>
        <dc:type
           rdf:resource="http://purl.org/dc/dcmitype/StillImage" />
        <dc:title></dc:title>
      </cc:Work>
    </rdf:RDF>
  </metadata>
  <g
     inkscape:label="Layer 1"
     inkscape:groupmode="layer"
     id="layer1">
    <g
       aria-label="ASTEROIDS"
       transform="matrix(0.64487541,0,0,1.4125725,467.02531,121.02983)"
       id="text835"
       style="font-size:159.427px;line-height:1.25;font-family:Stacker;-inkscape-font-specification:Stacker;fill:#ffffff;fill-rule:nonzero;stroke-width:5.97845;stroke-miterlimit:4;stroke-dasharray:none"
       inkscape:path-effect="#path-effect860"
       inkscape:export-xdpi="103"
       inkscape:export-ydpi="103">
      <path
         d="m -324.40049,-130.8902 c 10.25566,-25.27882 20.5781,-50.54541 30.96807,-75.79939 -0.69581,-1.40811 -1.39184,-2.81617 -2.08808,-4.22417 -10.48789,25.47238 -20.90705,50.95761 -31.25824,76.45527 -2.85628,0.12266 -5.71254,0.24627 -8.56876,0.37084 11.91551,-28.12684 23.91687,-56.23724 36.0052,-84.33059 -2.7219,-5.31472 -5.44697,-10.62857 -8.1752,-15.94155 -15.44091,34.8874 -30.74435,69.80255 -45.9126,104.7442 1.32188,-0.0596 2.64377,-0.11889 3.96566,-0.17803 13.98304,-32.06409 28.08042,-64.10562 42.29393,-96.12363 1.27901,2.55361 2.5573,5.10742 3.83488,7.66142 -12.61529,29.3423 -25.1358,58.70317 -37.56283,88.08188 5.49921,-0.24231 10.99853,-0.48107 16.49797,-0.71625 z m 64.09107,-32.25272 c -0.62904,-1.19951 -1.25825,-2.39896 -1.88763,-3.59837 -10.87061,0.4101 -21.74076,0.83433 -32.6104,1.27258 -0.42796,1.24053 -0.85578,2.48108 -1.28347,3.72165 11.9266,-0.48222 23.85378,-0.94755 35.7815,-1.39586 z m 39.82833,28.23776 c -19.52886,-36.54876 -39.22105,-73.05158 -59.07326,-109.50789 -1.33387,0.0518 -2.66774,0.1039 -4.00159,0.15617 19.17555,35.25377 38.20186,70.55091 57.07596,105.89089 -2.804,0.098 -5.60798,0.19693 -8.41194,0.29682 -18.3162,-35.34793 -36.77931,-70.6556 -55.38653,-105.9225 -4.96179,0.19706 -9.92342,0.39704 -14.8849,0.59991 11.44116,22.34939 22.82664,44.71414 34.15577,67.09413 -9.55221,0.36678 -19.10403,0.74445 -28.65544,1.13293 -3.23777,7.9501 -6.46891,15.90144 -9.69345,23.85398 16.63062,-0.69039 33.26234,-1.34803 49.89504,-1.97255 3.26657,6.47169 6.52841,12.94465 9.7855,19.41887 1.32219,-0.0487 2.64439,-0.0972 3.96659,-0.14543 -3.82849,-7.67742 -7.6636,-15.35309 -11.5053,-23.027 -15.57794,0.58194 -31.15501,1.19296 -46.73109,1.83272 2.26977,-5.46515 4.54273,-10.9297 6.81889,-16.39365 10.60968,-0.42951 21.21986,-0.84567 31.8305,-1.24839 -11.2631,-22.38714 -22.58234,-44.7592 -33.95708,-67.11605 2.29341,-0.0927 4.58685,-0.18486 6.88033,-0.27635 18.55511,35.26594 36.9666,70.57242 55.2317,105.91891 5.55335,-0.1989 11.10678,-0.39407 16.6603,-0.58552 z"
         style="fill:#ffffff;fill-rule:nonzero;stroke-width:5.97845;stroke-miterlimit:4;stroke-dasharray:none"
         id="path837"
         inkscape:original-d="m -326.66645,-129.56355 34.11738,-74.45241 -1.91313,-4.30453 -34.43623,75.09012 h -8.60906 l 39.5379,-82.74262 -7.49307,-16.26155 -50.37893,102.67099 h 3.98567 l 46.39326,-94.22136 3.50739,7.81192 -41.29159,86.40944 z m 65.5245,-29.65343 -1.7537,-3.66682 h -32.68254 l -1.43484,3.66682 z m 38.90019,29.65343 -55.00232,-111.5989 h -3.98568 l 53.0892,107.93208 h -8.44963 l -51.3355,-107.93208 h -14.82671 l 31.40712,68.39418 h -28.69686 l -10.68161,23.43577 h 50.06008 l 9.08734,19.76895 h 3.98567 l -10.68161,-23.43577 h -46.87154 l 7.49307,-16.10213 h 31.8854 l -31.24769,-68.39418 h 6.85536 l 51.17607,107.93208 z" />
      <path
         d="m -153.04216,-137.04545 c 9.362,-0.27137 20.15264,-0.57272 30.53457,-4.35543 5.50474,-2.05931 11.30167,-5.23907 15.61354,-10.76923 4.31176,-5.53003 6.51831,-12.92063 6.33023,-20.57043 -0.1881,-7.65057 -2.75598,-14.92284 -7.35644,-20.23003 -4.59641,-5.14776 -10.58,-8.18285 -16.21112,-9.78837 -6.91967,-2.04973 -13.79537,-2.34017 -20.33765,-2.15618 -5.4771,0.2072 -10.95402,0.41808 -16.43075,0.63261 -6.85818,0.20207 -14.68686,0.27976 -20.79212,-0.96485 -2.89209,-0.54792 -5.32109,-1.58781 -6.96265,-2.97131 -1.64154,-1.38349 -2.6504,-2.94638 -2.73176,-5.49591 -0.0864,-2.70889 0.66117,-4.3279 2.21329,-5.81272 1.55207,-1.48478 3.91873,-2.51666 6.93014,-3.40798 5.87103,-1.61915 13.69739,-1.85656 20.73269,-2.06384 8.20465,-0.24174 16.4096,-0.47527 24.61483,-0.70056 l -0.37196,-13.54624 c -8.80104,0.24164 -17.60173,0.49276 -26.40205,0.7533 -8.64334,0.25589 -19.0191,1.21143 -27.55796,4.67485 -4.10282,1.88531 -7.86824,4.24041 -10.636,7.68089 -2.60805,3.43545 -4.05749,7.94944 -3.88358,13.20792 0.1739,5.25802 1.91791,9.66714 4.73354,12.76493 2.98053,3.25211 6.87956,5.35903 11.07506,6.82043 8.70132,2.75223 19.07578,2.75373 27.67969,2.49899 2.60333,-0.0771 5.20668,-0.15333 7.81006,-0.22876 8.451,-0.24483 18.50073,-0.0473 26.23057,2.6174 3.86321,1.33178 7.25924,3.15621 9.55573,5.64818 2.30069,2.65141 3.66027,5.9653 3.77937,10.58728 0.1191,4.62178 -1.06762,8.0015 -3.38188,10.77288 -2.15535,2.76734 -5.27986,4.92275 -9.05098,6.61875 -7.7061,3.07608 -17.70271,3.99392 -25.96015,4.23316 -16.62777,0.48176 -33.25491,0.99745 -49.88127,1.5467 0.88468,-2.10292 1.76984,-4.20574 2.65548,-6.30847 15.0455,-0.49354 30.09167,-0.9596 45.13841,-1.39789 5.71412,-0.32585 13.67215,-0.39357 20.61502,-2.33744 3.31641,-0.88838 6.46188,-2.24922 8.95517,-4.22948 2.32988,-2.13528 3.84125,-5.20552 3.74463,-8.87092 -0.0966,-3.6657 -1.76391,-6.49225 -4.20396,-8.34112 -2.60341,-2.00388 -5.81937,-3.03347 -9.18221,-3.57919 -4.80617,-0.82527 -10.06644,-0.83707 -14.84655,-0.70014 -3.34549,0.0958 -6.69094,0.19304 -10.03636,0.29161 -3.66246,0.16108 -7.32482,0.32381 -10.98709,0.48816 -6.69015,0.20312 -13.71422,-0.0564 -20.31214,-1.9187 -5.31341,-1.58443 -10.66073,-4.12159 -14.64545,-8.77453 -4.13872,-4.4882 -6.43392,-10.95153 -6.66447,-17.80278 -0.23593,-7.01109 1.62558,-13.45425 5.46498,-18.36749 3.6848,-4.74863 8.87036,-7.7889 13.93577,-9.70587 9.18639,-3.32532 18.94617,-3.78523 27.75152,-4.04729 9.44505,-0.28109 18.89053,-0.55134 28.33644,-0.81068 l -0.10065,-3.66545 c -9.44873,0.25941 -18.89703,0.52974 -28.34488,0.81092 -8.80809,0.26214 -19.0511,0.73653 -28.87007,4.40215 -5.54166,2.09221 -11.36331,5.31363 -15.66085,10.88125 -4.29763,5.56772 -6.44419,12.97808 -6.18456,20.62658 0.25962,7.64777 2.903,14.8964 7.54673,20.16425 4.63843,5.10858 10.63794,8.10245 16.26834,9.67607 6.92044,2.01085 13.78221,2.27503 20.3117,2.07611 5.46609,-0.21968 10.93234,-0.43573 16.39876,-0.64811 1.22101,-0.0356 2.44201,-0.0709 3.66302,-0.10615 5.25773,-0.15157 11.31041,-0.16276 16.27572,0.65805 3.2026,0.54988 5.77643,1.43727 7.56635,2.8245 1.78994,1.38725 2.78741,2.95558 2.85964,5.66488 0.0722,2.70931 -0.83573,4.48776 -2.54688,5.96912 -1.70682,1.6407 -4.38022,2.82943 -7.54293,3.55438 -6.15406,1.7632 -13.95124,1.98541 -19.6715,2.15203 -15.84621,0.46158 -31.69176,0.95394 -47.53654,1.47675 -1.86476,4.58112 -3.72729,9.16265 -5.58762,13.7446 18.47395,-0.6186 36.94885,-1.19582 55.42449,-1.73111 8.4137,-0.24377 18.88373,-1.17491 27.21473,-4.58573 4.24256,-1.86766 7.99805,-4.19859 10.614,-7.61516 2.61573,-3.41626 4.25231,-7.92392 4.11838,-13.18298 -0.13395,-5.25973 -1.99851,-9.67709 -4.78951,-12.795 -2.79487,-3.27701 -6.67814,-5.40822 -11.02048,-6.7276 -8.53705,-2.96289 -18.90515,-2.99192 -27.51754,-2.74241 -2.60412,0.0754 -5.20822,0.15172 -7.81229,0.22882 -8.44628,0.25007 -18.67053,0.0846 -26.41182,-2.53933 -3.86746,-1.15322 -7.12416,-3.12178 -9.44046,-5.59866 -2.32135,-2.63605 -3.86789,-5.93541 -4.0194,-10.55616 -0.15153,-4.62111 1.17607,-8.01414 3.32561,-10.7959 2.14934,-2.78154 5.27985,-4.95636 9.22682,-6.6767 7.58786,-3.11331 17.63959,-4.05907 26.12082,-4.31016 7.62468,-0.22574 15.24963,-0.4444 22.87484,-0.65594 l 0.17244,6.21528 c -7.03509,0.19517 -14.06996,0.39641 -21.10462,0.60367 -7.03238,0.36675 -15.0262,0.44935 -21.69298,2.2533 -3.17223,0.89663 -6.16848,2.26747 -8.34466,4.25112 -2.17111,2.14303 -3.35635,5.05232 -3.24348,8.55798 0.11287,3.50556 1.48252,6.33265 3.937,8.16834 2.30016,2.00026 5.20698,3.02467 8.58198,3.71686 6.74694,1.38375 14.72719,1.14218 21.58385,0.94015 5.10296,-0.20352 10.20609,-0.40386 15.30938,-0.60102 6.70044,-0.18905 13.73263,0.0967 20.3278,1.99511 5.31023,1.61338 10.48358,4.19067 14.58966,8.87107 3.94302,4.52549 6.33407,11.00378 6.50456,17.85752 0.17444,7.01217 -1.89457,13.4434 -5.58652,18.32082 -3.85517,4.72243 -8.8631,7.7228 -14.05605,9.61492 -9.44444,3.28034 -19.60022,3.72284 -28.64706,3.98449 -19.63032,0.56773 -39.25987,1.18282 -58.8884,1.84462 -0.5408,1.24121 -1.08142,2.48245 -1.62186,3.72373 19.94001,-0.67511 39.88103,-1.30203 59.82281,-1.88008 z m 49.99457,-65.29631 -1.17853,-47.65415 c -1.22793,0.0304 -2.45585,0.0609 -3.68376,0.0917 l 1.05729,42.23497 c -2.41805,-0.89633 -4.83665,-1.79194 -7.2558,-2.68683 l -1.00874,-39.36562 c -4.80477,0.12311 -9.60944,0.24905 -14.414,0.37782 l 0.99534,37.13325 c 1.23835,0.49842 2.47654,0.99704 3.71458,1.49584 l -0.92925,-35.06172 c 2.40159,-0.0636 4.8032,-0.12658 7.20484,-0.1888 l 0.98706,38.09034 c 4.83924,1.84153 9.67623,3.68595 14.51097,5.53325 z"
         style="fill:#ffffff;fill-rule:nonzero;stroke-width:5.97845;stroke-miterlimit:4;stroke-dasharray:none"
         id="path839"
         inkscape:original-d="m -154.48546,-129.56355 c 9.4062,0 20.24723,0 30.76942,-3.5074 5.57994,-1.91312 11.47874,-4.94223 15.9427,-10.36275 4.46395,-5.42052 6.85536,-12.75416 6.85536,-20.40666 0,-7.65249 -2.39141,-14.98614 -6.85536,-20.40665 -4.46396,-5.2611 -10.36276,-8.44964 -15.9427,-10.20333 -6.85537,-2.23198 -13.71073,-2.71026 -20.24723,-2.71026 l -16.42099,0.15943 c -6.85536,0 -14.66728,-0.15943 -20.72551,-1.59427 -2.86968,-0.63771 -5.26109,-1.7537 -6.85536,-3.18854 -1.59427,-1.43485 -2.55083,-3.02912 -2.55083,-5.57995 0,-2.71026 0.79714,-4.30453 2.39141,-5.73937 1.59427,-1.43484 3.98567,-2.39141 7.01478,-3.18854 5.8988,-1.43484 13.71073,-1.43484 20.72551,-1.43484 h 24.55176 v -13.5513 h -26.30545 c -8.60906,0 -18.97182,0.63771 -27.58087,3.82625 -4.14511,1.75369 -7.97135,3.98567 -10.84104,7.33364 -2.71026,3.34797 -4.30453,7.81192 -4.30453,13.07301 0,5.2611 1.59427,9.72505 4.30453,12.91359 2.86969,3.34797 6.69593,5.57995 10.84104,7.17422 8.60905,3.02911 18.97181,3.34796 27.58087,3.34796 h 7.81192 c 8.44963,0 18.49353,0.47828 26.14603,3.34797 3.82625,1.43484 7.17421,3.34797 9.40619,5.8988 2.23198,2.71026 3.5074,6.05823 3.5074,10.68161 0,4.62338 -1.27542,7.97135 -3.66682,10.68161 -2.23198,2.71026 -5.42052,4.78281 -9.24677,6.37708 -7.81192,2.86968 -17.85582,3.50739 -26.14603,3.50739 h -50.06008 l 2.86969,-6.21765 h 45.27727 c 5.73937,-0.15943 13.71072,0 20.72551,-1.7537 3.34796,-0.79713 6.5365,-2.07255 9.08734,-3.98567 2.3914,-2.07255 3.98567,-5.10167 3.98567,-8.76849 0,-3.66682 -1.59427,-6.53651 -3.98567,-8.44963 -2.55084,-2.07255 -5.73938,-3.18854 -9.08734,-3.82625 -4.78281,-0.95656 -10.0439,-1.11599 -14.82671,-1.11599 h -10.04391 l -11.00046,0.15943 c -6.69593,0 -13.71072,-0.47828 -20.24723,-2.55083 -5.26109,-1.7537 -10.52218,-4.46396 -14.34843,-9.24677 -3.98567,-4.62338 -6.05822,-11.15989 -6.05822,-18.01525 0,-7.01479 2.07255,-13.39187 6.05822,-18.17468 3.82625,-4.62338 9.08734,-7.49307 14.18901,-9.24676 9.24676,-3.02912 18.97181,-3.18854 27.74029,-3.18854 h 28.21858 v -3.66682 h -28.21858 c -8.76848,0 -18.97181,0.15942 -28.85628,3.50739 -5.57995,1.91312 -11.47875,4.94224 -15.9427,10.36275 -4.46396,5.42052 -6.85536,12.75417 -6.85536,20.40666 0,7.6525 2.3914,14.98614 6.85536,20.40666 4.46395,5.26109 10.36275,8.44963 15.9427,10.20333 6.85536,2.23197 13.71072,2.71025 20.24723,2.71025 l 16.42098,-0.15942 h 3.66682 c 5.26109,0 11.31932,0.15942 16.26155,1.11599 3.18854,0.6377 5.73937,1.59427 7.49307,3.02911 1.7537,1.43484 2.71026,3.02911 2.71026,5.73937 0,2.71026 -0.95656,4.46396 -2.71026,5.8988 -1.7537,1.59427 -4.46395,2.71026 -7.65249,3.34797 -6.21766,1.59427 -14.02958,1.59427 -19.76895,1.59427 h -47.66868 l -6.05822,13.55129 h 55.64002 c 8.44963,0 18.97181,-0.6377 27.42145,-3.82625 4.30452,-1.75369 8.13077,-3.98567 10.84103,-7.33364 2.71026,-3.34796 4.46396,-7.81192 4.46396,-13.07301 0,-5.26109 -1.7537,-9.72505 -4.46396,-12.91359 -2.71026,-3.34797 -6.53651,-5.57994 -10.84103,-7.01479 -8.44964,-3.18854 -18.81239,-3.50739 -27.42145,-3.50739 h -7.81192 c -8.44963,0 -18.65296,-0.47828 -26.30546,-3.34797 -3.82625,-1.27541 -7.01479,-3.34796 -9.24676,-5.8988 -2.23198,-2.71026 -3.66682,-6.05822 -3.66682,-10.68161 0,-4.62338 1.43484,-7.97135 3.66682,-10.6816 2.23197,-2.71026 5.42051,-4.78281 9.40619,-6.37709 7.6525,-2.86968 17.6964,-3.50739 26.14603,-3.50739 h 22.79806 v 6.21765 h -21.04437 c -7.01478,0.15943 -14.98613,0 -21.68207,1.59427 -3.18854,0.79714 -6.21765,2.07256 -8.44963,3.98568 -2.23198,2.07255 -3.50739,4.94224 -3.50739,8.44963 0,3.50739 1.27541,6.37708 3.66682,8.2902 2.23198,2.07256 5.10166,3.18854 8.44963,3.98568 6.69593,1.59427 14.66728,1.59427 21.52264,1.59427 l 15.305,-0.15943 c 6.69593,0 13.71072,0.47828 20.24723,2.55083 5.26109,1.7537 10.36275,4.46396 14.34843,9.24677 3.82624,4.62338 6.05822,11.15989 6.05822,18.01525 0,7.01479 -2.23198,13.39187 -6.05822,18.17468 -3.98568,4.62338 -9.08734,7.49307 -14.34843,9.24677 -9.56562,3.02911 -19.76895,3.18854 -28.85629,3.18854 h -59.14742 l -1.7537,3.66682 z m 51.81378,-63.93023 v -47.66867 h -3.66682 v 42.24815 l -7.17422,-2.86968 v -39.37847 h -14.34843 v 37.14649 l 3.66682,1.59427 v -35.07394 h 7.17422 v 38.10305 z" />
      <path
         d="m -16.720287,-140.22757 -1.428245,-80.97593 c -1.171803,0.0207 -2.343602,0.0415 -3.515397,0.0625 l 1.386366,77.30932 c -2.381324,0.0427 -4.762643,0.0861 -7.143959,0.13029 l -1.432918,-77.30851 c -4.846904,0.0898 -9.693739,0.18261 -14.540503,0.27833 l 1.599239,80.97288 c 1.216733,-0.024 2.433466,-0.0479 3.6502,-0.0716 l -1.503124,-77.30723 c 2.396035,-0.0466 4.792087,-0.0924 7.188156,-0.1376 l 1.456684,77.30809 c 4.761151,-0.0897 9.52232,-0.1766 14.283501,-0.2606 z m 47.373071,-88.91117 c -0.602823,-1.21423 -1.205828,-2.42842 -1.809013,-3.64256 -38.548207,0.52661 -77.092476,1.24185 -115.631139,2.141 0.911122,-2.09437 1.82274,-4.18864 2.734855,-6.28281 36.692125,-0.84732 73.389521,-1.52793 110.09075,-2.03774 -2.143198,-4.48772 -4.288766,-8.97487 -6.436701,-13.46144 -33.912309,0.48893 -67.820853,1.12331 -101.724502,1.89993 -0.559312,1.23541 -1.118445,2.47085 -1.677398,3.70634 33.733103,-0.77763 67.470958,-1.41446 101.212452,-1.90731 0.991268,2.05827 1.982034,4.11667 2.9723,6.1752 -35.644985,0.512 -71.286159,1.18487 -106.922206,2.01486 -1.922008,4.56308 -3.841734,9.12663 -5.759182,13.69063 40.977667,-0.97499 81.961597,-1.74226 122.949784,-2.2961 z"
         style="fill:#ffffff;fill-rule:nonzero;stroke-width:5.97845;stroke-miterlimit:4;stroke-dasharray:none"
         id="path841"
         inkscape:original-d="m -17.537914,-129.56355 v -80.98892 h -3.507394 v 77.3221 h -7.174215 v -77.3221 H -42.72738 v 80.98892 h 3.666821 v -77.3221 h 7.174215 v 77.3221 z m 48.784663,-88.16313 -1.753697,-3.66683 H -85.77267 l 2.869686,-6.21765 H 26.782793 L 20.56514,-241.16245 H -80.671006 l -1.753697,3.66682 H 18.333162 l 2.869686,6.21765 H -85.294389 l -6.058226,13.5513 z" />
      <path
         d="m 138.9708,-141.93851 c 3.51106,-7.82688 7.02937,-15.65215 10.55495,-23.47579 -27.88279,0.0929 -55.7659,0.28772 -83.64869,0.58266 l -0.219191,-20.72417 c 20.657216,-0.21849 41.314851,-0.38214 61.972651,-0.49022 -3.59862,-7.73998 -7.20442,-15.47828 -10.81739,-23.21488 -17.134187,0.10551 -34.268048,0.24907 -51.40143,0.43028 l -0.219191,-20.72417 c 27.611231,-0.292 55.224141,-0.48644 82.838111,-0.58157 -0.5373,-1.22042 -1.07477,-2.4408 -1.61241,-3.66115 -28.31595,0.10148 -56.630692,0.30731 -84.943566,0.61562 l 0.303819,27.89782 c 17.553723,-0.19116 35.107929,-0.34283 52.662457,-0.45455 2.53469,5.40444 5.06587,10.80971 7.59354,16.21582 -20.0266,0.11446 -40.05298,0.28108 -60.078914,0.49917 l 0.303818,27.89783 c 27.238084,-0.29667 54.476426,-0.49785 81.714416,-0.60183 -2.47013,5.37679 -4.93677,10.75438 -7.39992,16.13277 -27.094,0.12109 -54.188605,0.33835 -81.283241,0.6501 l -1.085642,-94.37373 c 30.141349,-0.34668 60.285033,-0.57748 90.430263,-0.69012 -2.04434,-4.50945 -4.09105,-9.01835 -6.14014,-13.52671 -32.95806,0.14053 -65.913816,0.42193 -98.866229,0.84124 l 1.420226,111.58895 c 1.216759,-0.0155 2.433519,-0.0308 3.650279,-0.0459 L 43.35952,-249.0739 c 30.913547,-0.38372 61.82991,-0.64593 92.74823,-0.78418 0.97045,2.06821 1.9404,4.13654 2.90982,6.205 -29.46078,0.12438 -58.919963,0.36145 -88.376796,0.70907 l 1.200453,101.70648 c 29.043521,-0.34287 58.086953,-0.57722 87.129573,-0.70098 z m -28.93157,-53.88667 c -0.53939,-1.16551 -1.07894,-2.33097 -1.61866,-3.4964 -15.52448,0.10693 -31.048739,0.24509 -46.572663,0.41415 l 0.0382,3.50715 c 16.05075,-0.1748 32.101834,-0.31655 48.153128,-0.4249 z m 20.47011,43.88192 c 0.52364,-1.17175 1.04743,-2.34347 1.57139,-3.51515 -23.25106,0.11295 -46.502407,0.29657 -69.753657,0.54982 l 0.03819,3.50716 c 22.71477,-0.24741 45.429573,-0.42834 68.144073,-0.54183 z"
         style="fill:#ffffff;fill-rule:nonzero;stroke-width:5.97845;stroke-miterlimit:4;stroke-dasharray:none"
         id="path843"
         inkscape:original-d="m 138.85993,-129.56355 10.68161,-23.43577 H 65.682934 v -20.72551 h 62.017106 l -10.68161,-23.27634 H 65.682934 v -20.72551 h 82.583186 l -1.59427,-3.66683 H 62.016113 v 27.89973 h 52.610907 l 7.49307,16.26155 H 62.016113 v 27.89973 h 81.945477 l -7.49307,16.10213 H 54.841898 v -94.38079 h 90.076252 l -6.05822,-13.55129 H 40.493468 v 111.5989 h 3.666821 v -107.93208 h 92.308231 l 2.86969,6.21765 H 51.334504 v 101.71443 z m -28.69686,-54.04576 -1.59427,-3.50739 H 62.016113 v 3.50739 z m 20.24723,44.00186 1.59427,-3.5074 H 62.016113 v 3.5074 z" />
      <path
         d="m 276.23815,-141.69211 c -9.03641,-8.10717 -18.0918,-16.20345 -27.16708,-24.28848 -6.16996,-5.49641 -12.34904,-10.98771 -18.53718,-16.4739 6.90462,-0.94331 13.26154,-2.52727 18.65648,-5.38761 1.70176,-0.90228 3.30788,-1.93159 4.80538,-3.1079 7.20283,-5.53595 11.57475,-14.27543 11.65984,-26.54991 0.10058,-14.50863 -6.06956,-23.95692 -15.6561,-29.27319 -0.16124,-0.088 -0.32327,-0.17487 -0.4861,-0.26075 -9.6763,-5.10367 -22.13909,-6.54476 -35.5371,-6.57575 -17.73589,-0.041 -35.47135,-0.0406 -53.2062,7.7e-4 l 0.26014,111.59762 c 1.2167,-0.003 2.4334,-0.005 3.65011,-0.008 l -0.21701,-107.93094 c 16.50105,-0.0332 33.00258,-0.0309 49.50446,0.007 13.29905,0.0308 25.46971,1.51807 34.2527,6.34863 0.43153,0.24171 0.85498,0.49059 1.27006,0.74702 0,0 0,0 0,0 7.88057,4.86817 12.73548,12.45007 12.6503,25.3234 -0.0759,11.4777 -3.9567,18.78654 -10.36007,23.69119 -0.84672,0.67281 -1.70148,1.28398 -2.56776,1.84063 -7.49273,4.8145 -15.84014,5.54597 -27.27102,6.79778 9.05363,7.98897 18.08801,15.98887 27.10295,23.99968 5.90776,5.25007 11.80713,10.50491 17.69837,15.76442 -3.70367,-0.0261 -7.40725,-0.0504 -11.11074,-0.0728 -2.2119,-2.06986 -4.42503,-4.13906 -6.63939,-6.20759 -13.00836,-12.15067 -26.05936,-24.27856 -39.1524,-36.38369 l 0.007,-3.50737 c 2.01895,0.004 4.0379,0.008 6.05685,0.0135 10.04093,0.0251 19.28942,-1.05389 26.48113,-4.52609 2.6606,-1.39844 4.98429,-3.17748 6.87909,-5.35938 3.45576,-3.97934 5.48653,-9.30086 5.52698,-16.09657 0.0404,-6.79643 -1.92822,-12.07424 -5.35181,-16.00216 -1.87656,-2.15314 -4.18977,-3.89998 -6.84712,-5.26778 -7.666,-3.70441 -17.75016,-4.86021 -28.79957,-4.88563 -14.03761,-0.0323 -28.075,-0.0386 -42.11209,-0.0191 l 0.14065,101.7135 c 4.76097,-0.007 9.52191,-0.0101 14.28281,-0.0107 l -0.011,-88.16248 c 9.27602,-0.001 18.55213,0.009 27.8283,0.0304 8.15689,0.0189 15.03212,0.68144 19.66162,2.61341 4.62964,1.93202 6.85412,4.65351 6.82958,9.9143 -0.0253,5.42064 -2.11433,8.1205 -6.43154,10.01581 -4.4775,1.89497 -11.34046,2.50667 -20.11771,2.48632 -6.862,-0.0159 -13.724,-0.0256 -20.58599,-0.0291 l -0.0114,22.47906 c 15.17649,13.5589 30.29853,27.14829 45.36525,40.76818 1.79846,0.008 3.59691,0.0168 5.39536,0.0258 -15.63901,-14.21464 -31.33802,-28.39638 -47.09604,-42.54524 l 0.0141,-17.05857 c 5.63671,0.005 11.27343,0.0135 16.91015,0.0266 8.93385,0.0207 16.27323,-0.58944 21.54863,-2.79922 5.27491,-2.36868 8.65099,-6.81576 8.6836,-13.352 0.0326,-6.53667 -3.62168,-10.85944 -9.05095,-13.27403 -5.5888,-2.25534 -12.78697,-2.91894 -21.10622,-2.9382 -10.50572,-0.0243 -21.01135,-0.0341 -31.51685,-0.0294 l 0.0394,88.16247 c -2.38123,0.001 -4.76247,0.003 -7.14372,0.005 l -0.10151,-94.37998 c 12.85882,-0.0139 25.71786,-0.006 38.57708,0.0235 10.88598,0.0251 20.48594,1.1793 27.03241,4.39895 3.91387,1.97268 6.84107,4.59458 8.58879,8.3062 1.24648,2.64695 1.89296,5.84771 1.8709,9.76324 -0.0224,3.98168 -0.705,7.21404 -1.9781,9.88107 -1.78531,3.7402 -4.7322,6.36943 -8.65215,8.39841 -5.91546,3.00125 -14.05069,4.08402 -23.45739,4.05942 -3.66717,-0.01 -7.33434,-0.0174 -11.00152,-0.0234 l -0.0144,8.76842 c 14.3147,13.2333 28.57918,26.49379 42.79267,39.78148 1.73953,1.62638 3.4783,3.25317 5.21633,4.88038 7.35156,0.0435 14.70351,0.0944 22.05583,0.15253 z"
         style="fill:#ffffff;fill-rule:nonzero;stroke-width:5.97845;stroke-miterlimit:4;stroke-dasharray:none"
         id="path845"
         inkscape:original-d="m 276.7642,-129.56355 -46.07441,-40.49446 c 9.08734,-1.27542 17.21812,-3.66682 23.43577,-8.60906 7.17422,-5.57994 11.47875,-14.34843 11.47875,-26.62431 0,-14.50786 -6.21765,-23.91405 -15.78328,-29.17514 -9.72504,-5.26109 -22.31978,-6.69593 -35.87107,-6.69593 h -52.92977 v 111.5989 h 3.66683 v -107.93208 h 49.26294 c 13.23244,0 25.34889,1.43484 34.11738,6.21765 8.60906,4.78281 14.02957,12.43531 14.02957,25.9866 0,11.47875 -3.82624,18.81239 -10.20332,23.75462 -8.13078,6.53651 -17.05869,7.33365 -29.81285,8.76849 l 45.11784,39.5379 h -11.15989 l -46.07441,-42.40759 v -3.50739 h 6.05823 c 10.0439,0 19.29067,-1.11599 26.46488,-4.62338 7.49307,-3.98568 12.27588,-11.00047 12.27588,-21.52265 0,-10.52218 -4.78281,-17.37754 -12.27588,-21.20379 -7.65249,-3.66682 -17.69639,-4.78281 -28.69686,-4.78281 h -41.9293 v 101.71443 h 14.34843 v -88.16313 h 27.7403 c 8.13078,0 14.98614,0.6377 19.60952,2.55083 4.62338,1.91312 6.85536,4.62338 6.85536,9.88447 0,5.42052 -2.07255,8.13078 -6.37708,10.0439 -4.46395,1.91313 -11.31932,2.55083 -20.0878,2.55083 h -20.56608 v 22.47921 l 45.59612,40.65389 h 5.42052 l -47.34982,-42.40759 v -17.05868 h 16.89926 c 8.92791,0 16.26155,-0.63771 21.52264,-2.86969 5.2611,-2.39141 8.60906,-6.85536 8.60906,-13.39187 0,-6.53651 -3.66682,-10.84103 -9.08734,-13.23244 -5.57994,-2.23198 -12.75416,-2.86969 -21.04436,-2.86969 h -31.40712 v 88.16314 h -7.17422 v -94.38079 h 38.42191 c 10.84104,0 20.40666,1.11599 26.94317,4.30453 6.69593,3.34797 10.52218,8.60906 10.52218,18.01525 0,9.56562 -3.82625,14.82671 -10.52218,18.33411 -5.8988,3.02911 -14.02958,4.1451 -23.43577,4.1451 h -11.00047 v 8.76848 l 48.30638,44.48014 z" />
      <path
         d="m 291.10221,-239.77439 c -10.00411,8.67694 -14.4188,21.71872 -14.5475,37.97959 l -0.0681,8.6087 c -0.12871,16.26086 4.06835,29.36388 13.83695,38.38145 9.77259,8.86043 24.79468,13.468 45.9047,13.74434 0.63491,0.008 1.26982,0.0167 1.90473,0.0251 l 0.17956,-13.54981 c -0.63562,-0.008 -1.27124,-0.0168 -1.90686,-0.0251 -16.68507,-0.21843 -28.08335,-3.84433 -35.33257,-10.45417 -7.09047,-6.44758 -10.34926,-16.04314 -10.23221,-28.79626 l 0.0644,-7.01439 c 0.11706,-12.75373 3.55603,-22.28827 10.81776,-28.59344 7.09882,-6.14617 18.18258,-9.53821 34.02871,-9.65183 l -0.0826,6.3764 c -11.19769,0.0144 -20.33699,1.66534 -26.78269,6.3792 -6.92882,4.86942 -10.681,13.12276 -10.79507,24.76072 l -0.0844,8.6085 c -0.11407,11.63687 3.46933,19.96279 10.2547,24.9766 6.62639,5.17284 16.30147,7.03558 28.22534,7.19169 0.63595,0.008 1.2719,0.0167 1.90785,0.0251 l 0.0486,-3.66642 c -0.63614,-0.008 -1.27229,-0.0168 -1.90843,-0.0251 -11.60948,-0.152 -20.49271,-2.00558 -26.17421,-6.37241 -5.67986,-4.36558 -8.79873,-11.09371 -8.68743,-22.09294 l 0.0871,-8.60847 c 0.11131,-11.00018 3.37116,-17.66292 9.17293,-21.90537 5.8001,-4.24122 14.77708,-5.89403 26.44907,-5.74117 0.63955,0.008 1.2791,0.0168 1.91865,0.0253 l 0.17956,-13.5498 c -0.64026,-0.008 -1.28052,-0.0169 -1.92079,-0.0253 -17.44773,-0.22852 -29.98061,3.31033 -38.20884,10.56128 -8.22995,7.25247 -11.83648,17.90466 -11.95528,31.29581 l -0.0622,7.01442 c -0.1188,13.39115 3.29143,24.10094 11.32731,31.51419 7.72236,7.09248 19.59165,10.88094 35.95137,11.25216 l -0.0826,6.3764 c -19.52508,-0.57164 -33.12892,-5.00935 -41.79762,-12.74321 -8.82312,-8.21362 -12.70778,-20.04069 -12.57905,-35.66381 l 0.0709,-8.60867 c 0.12874,-15.62313 4.21773,-27.39006 13.25522,-35.43626 9.19603,-7.88529 23.3428,-12.05197 44.16217,-11.77929 0.64059,0.008 1.28118,0.0168 1.92177,0.0253 l 0.0486,-3.66641 c -0.64078,-0.008 -1.28157,-0.0169 -1.92235,-0.0253 -21.30692,-0.27908 -36.58412,4.03863 -46.58716,12.87274 z m 101.93069,1.36869 c -9.76197,-9.10002 -24.90764,-13.8235 -46.21257,-14.11843 -0.58735,-0.008 -1.17471,-0.0162 -1.76207,-0.0243 l -0.1856,13.5497 c 0.58671,0.008 1.17342,0.0161 1.76013,0.0242 16.96115,0.23479 28.427,3.93173 35.51143,10.58719 7.08708,6.49605 10.2712,16.12023 10.04802,28.87216 l -0.12274,7.01357 c -0.22318,12.75194 -3.73598,22.25577 -10.99971,28.51239 -7.10203,6.09987 -18.12177,9.42647 -33.8584,9.52529 l 0.0892,-6.37631 c 11.13187,-0.004 20.21979,-1.61545 26.81983,-6.29248 6.75993,-4.83261 10.56503,-13.0597 10.76221,-24.69544 l 0.14585,-8.60763 c 0.19719,-11.63675 -3.33257,-19.98743 -9.96682,-25.0383 -6.79004,-5.21175 -16.52016,-7.11749 -28.51489,-7.28352 -0.58641,-0.008 -1.17283,-0.0162 -1.75924,-0.0242 l -0.0502,3.6664 c 0.58624,0.008 1.17247,0.0161 1.75871,0.0242 11.67139,0.16156 20.59869,2.05481 26.28234,6.45048 5.84439,4.39893 8.76469,11.14442 8.58146,22.14331 l -0.1434,8.60767 c -0.18323,10.9985 -3.32215,17.64279 -9.27745,21.85204 -5.79713,4.21247 -14.72893,5.82686 -26.33876,5.66618 -0.58314,-0.008 -1.16628,-0.0161 -1.74942,-0.0241 l -0.1856,13.54971 c 0.58249,0.008 1.16498,0.016 1.74748,0.0241 17.31597,0.23965 29.76352,-3.22192 37.99722,-10.41751 8.2337,-7.1956 12.08792,-17.80808 12.32602,-31.19755 l 0.12473,-7.01354 c 0.23811,-13.38947 -3.24235,-24.13648 -11.27287,-31.60647 -7.71612,-7.14579 -19.66236,-11.01011 -36.14581,-11.40007 l 0.0892,-6.37631 c 19.69251,0.59429 33.39371,5.13254 42.058,12.93614 8.81594,8.28455 12.74965,20.15842 12.4633,35.77933 l -0.15779,8.60744 c -0.28635,15.6209 -4.64394,27.33795 -13.68662,35.31305 -9.03991,7.81569 -23.23986,11.87808 -43.8814,11.59241 -0.5822,-0.008 -1.1644,-0.0161 -1.74659,-0.024 l -0.0502,3.6664 c 0.58202,0.008 1.16404,0.016 1.74606,0.024 21.11153,0.29218 36.26201,-3.91312 46.26912,-12.50746 10.00842,-8.75246 14.55401,-21.74087 14.85638,-37.99963 l 0.16007,-8.6074 c 0.30236,-16.25813 -3.76225,-29.41073 -13.52851,-38.35273 z"
         style="fill:#ffffff;fill-rule:nonzero;stroke-width:5.97845;stroke-miterlimit:4;stroke-dasharray:none"
         id="path847"
         inkscape:original-d="m 290.79331,-227.77059 c -9.88448,8.76849 -14.18901,21.8415 -14.18901,38.10306 v 8.60906 c 0,16.26155 4.30453,29.33456 14.18901,38.26248 9.88447,8.76848 25.03004,13.23244 46.23383,13.23244 h 1.91312 v -13.5513 h -1.91312 c -16.73984,0 -28.21858,-3.50739 -35.55222,-10.0439 -7.17422,-6.37708 -10.52219,-15.9427 -10.52219,-28.69686 v -7.01479 c 0,-12.75416 3.34797,-22.31978 10.52219,-28.69686 7.01478,-6.21765 18.01525,-9.72505 33.79852,-10.0439 v 6.37708 c -11.15989,0.15943 -20.24723,1.91313 -26.62431,6.69594 -6.85536,4.94223 -10.52218,13.23244 -10.52218,24.87061 v 8.60906 c 0,11.63817 3.66682,19.92837 10.52218,24.87061 6.69594,5.10166 16.42098,6.85536 28.37801,6.85536 h 1.91312 v -3.66682 h -1.91312 c -11.63817,0 -20.56609,-1.7537 -26.30546,-6.05823 -5.73937,-4.30453 -8.92791,-11.00046 -8.92791,-22.00092 v -8.60906 c 0,-11.00047 3.18854,-17.6964 8.92791,-22.00093 5.73937,-4.30453 14.66729,-6.05822 26.30546,-6.05822 h 1.91312 v -13.5513 h -1.91312 c -17.37755,0 -29.81285,3.66682 -37.94363,11.00046 -8.13078,7.33365 -11.63817,18.01525 -11.63817,31.40712 v 7.01479 c 0,13.39187 3.50739,24.07348 11.63817,31.40712 7.81192,7.01479 19.76895,10.68161 36.18993,10.84104 v 6.37708 c -19.60952,-0.31886 -33.32024,-4.62339 -42.08873,-12.27588 -8.92791,-8.13078 -12.91358,-19.92838 -12.91358,-35.55222 v -8.60906 c 0,-15.62385 3.98567,-27.42145 12.91358,-35.55222 9.08734,-7.97135 23.11692,-12.27588 43.84243,-12.27588 h 1.91312 v -3.66682 h -1.91312 c -21.20379,0 -36.34936,4.46395 -46.23383,13.39186 z m 101.555,0 c -9.88448,-8.92791 -25.03004,-13.39186 -46.23383,-13.39186 h -1.7537 v 13.55129 h 1.7537 c 16.89926,0 28.378,3.50739 35.55222,10.0439 7.17421,6.37708 10.52218,15.9427 10.52218,28.69686 v 7.01479 c 0,12.75416 -3.34797,22.31978 -10.52218,28.69686 -7.01479,6.21765 -18.01525,9.72505 -33.79853,10.0439 v -6.37708 c 11.15989,-0.15943 20.24723,-1.91312 26.78374,-6.69593 6.69593,-4.94224 10.36276,-13.23244 10.36276,-24.87061 v -8.60906 c 0,-11.63817 -3.66683,-19.92838 -10.36276,-24.87061 -6.85536,-5.10167 -16.58041,-6.85537 -28.53743,-6.85537 h -1.7537 v 3.66683 h 1.7537 c 11.63817,0 20.56608,1.75369 26.30545,6.05822 5.8988,4.30453 8.92791,11.00046 8.92791,22.00093 v 8.60906 c 0,11.00046 -3.02911,17.69639 -8.92791,22.00092 -5.73937,4.30453 -14.66728,6.05823 -26.30545,6.05823 h -1.7537 v 13.55129 h 1.7537 c 17.37754,0 29.81285,-3.66682 37.94362,-11.00046 8.13078,-7.33364 11.7976,-18.01525 11.7976,-31.40712 v -7.01479 c 0,-13.39187 -3.66682,-24.07347 -11.7976,-31.40712 -7.81192,-7.01479 -19.76894,-10.68161 -36.18993,-10.84103 v -6.37708 c 19.60953,0.31885 33.32025,4.62338 42.08873,12.27588 8.92791,8.13077 13.07302,19.92837 13.07302,35.55222 v 8.60906 c 0,15.62384 -4.14511,27.42144 -13.07302,35.55222 -8.92791,7.97135 -23.11691,12.27588 -43.84242,12.27588 h -1.7537 v 3.66682 h 1.7537 c 21.20379,0 36.34935,-4.46396 46.23383,-13.23244 9.88447,-8.92792 14.189,-22.00093 14.189,-38.26248 v -8.60906 c 0,-16.26156 -4.30453,-29.33457 -14.189,-38.10306 z" />
      <path
         d="m 481.82746,-138.32519 c 0.0211,-0.0436 11.20224,-23.12446 11.2233,-23.168 -8.74967,-0.21726 -17.49913,-0.42682 -26.24838,-0.62837 l 1.49024,-64.70961 c 8.36255,0.19253 16.72462,0.39232 25.08619,0.59911 4.4e-4,0.001 -1.50791,-3.70621 -1.50747,-3.70513 -9.00295,-0.22168 -18.00652,-0.43523 -27.0107,-0.64033 l -1.64148,72.0416 c 8.0578,0.18366 16.11581,0.37415 24.17404,0.57122 -2.62288,5.30481 -5.24302,10.61031 -7.86039,15.9165 -17.15757,-0.41095 -34.31344,-0.79164 -51.46755,-1.13975 0.009,0.0203 -6.99714,-16.26529 -6.98842,-16.245 8.057,0.15911 16.11424,0.32548 24.1717,0.49885 l 1.54966,-72.04338 c -9.00498,-0.19364 -18.01057,-0.3786 -27.01676,-0.55455 -0.61008,1.21057 -1.22001,2.42118 -1.82978,3.63183 8.36449,0.16232 16.7285,0.33244 25.09203,0.51009 l -1.37491,64.71185 c -8.6958,-0.18481 -17.39139,-0.36142 -26.08675,-0.52952 3.40141,7.879 6.79663,15.75931 10.1858,23.6409 18.68428,0.37611 37.37084,0.791 56.05963,1.24169 z m -25.985,-10.49013 0.004,-0.15938 c 5.93313,0.13225 11.86645,0.26825 17.79993,0.40789 4.6e-4,-9.6e-4 1.67174,-3.46794 1.6722,-3.4689 -6.46485,-0.15286 -12.92952,-0.30139 -19.394,-0.44548 l 1.8822,-84.4744 c 10.82078,0.24102 21.64058,0.49436 32.45939,0.75946 -1.9145,-4.56534 -3.83088,-9.13031 -5.74916,-13.69491 -18.8309,-0.45366 -37.66553,-0.87143 -56.50383,-1.25029 0.007,-0.0139 -6.51709,13.43817 -6.51036,13.42429 8.47711,0.16661 16.95362,0.34118 25.42953,0.52343 l 0.0789,-3.66593 c -6.61188,-0.14216 -13.22414,-0.27965 -19.8368,-0.41234 0.001,-0.003 3.00434,-6.15525 3.00578,-6.15819 17.28578,0.35049 34.56863,0.73364 51.8485,1.14714 0.91039,2.09492 1.82036,4.18992 2.72993,6.285 -10.18212,-0.24565 -20.36517,-0.48081 -30.54915,-0.70499 l -1.94102,88.14071 c -6.51741,-0.14358 -13.03463,-0.28262 -19.55166,-0.41699 0.55873,1.18088 1.11731,2.3618 1.67575,3.54276 5.93272,0.12308 11.86562,0.25002 17.79869,0.38073 l -0.004,0.15938 c 1.21839,0.0268 2.43678,0.0539 3.65518,0.081 z"
         style="fill:#ffffff;fill-rule:nonzero;stroke-width:5.97845;stroke-miterlimit:4;stroke-dasharray:none"
         id="path849"
         inkscape:original-d="m 483.22145,-129.56355 10.68161,-23.43577 h -26.30545 v -64.72736 h 25.03004 l -1.59427,-3.66683 h -26.94317 v 72.06101 h 24.23291 l -7.49307,16.10213 H 429.1757 l -7.33364,-16.10213 h 24.2329 v -72.06101 H 419.1318 l -1.7537,3.66683 h 25.03004 v 64.72736 h -26.14603 l 10.68161,23.43577 z m -26.30545,-9.88448 v -0.15942 h 17.85582 l 1.59427,-3.5074 H 456.916 v -84.49631 h 32.36368 l -6.05823,-13.55129 h -56.27773 l -6.21765,13.55129 h 25.34889 v -3.66682 h -19.76895 l 2.86969,-6.21765 h 51.65435 l 2.86968,6.21765 h -30.45055 v 88.16313 h -19.60952 l 1.75369,3.5074 h 17.85583 v 0.15942 z" />
      <path
         d="m 618.19526,-232.86559 c -9.62268,-9.08384 -24.67529,-14.03185 -45.94683,-14.66253 -21.91129,-0.64964 -43.82776,-1.25694 -65.7493,-1.81715 l -2.06997,80.96236 c 1.22025,0.0312 2.4405,0.0626 3.66076,0.0941 l 1.99482,-77.29632 c 20.68932,0.53371 41.37434,1.10914 62.05499,1.72231 20.78724,0.61633 34.88226,5.374 43.5719,13.62898 8.68452,8.41432 12.44424,20.34375 11.93111,35.95945 l -0.28275,8.60457 c -0.51313,15.6157 -5.04189,27.26936 -14.21013,35.10966 -9.16576,7.68316 -23.44085,11.53089 -44.10109,10.91798 -20.55369,-0.60975 -41.10503,-1.18189 -61.65395,-1.71244 l 0.16041,-6.21558 c 20.50431,0.52936 41.01063,1.10011 61.51888,1.7083 17.32905,0.51391 29.8354,-2.59901 38.33285,-9.34832 8.34181,-6.91243 12.34716,-17.30883 12.78183,-30.69386 l 0.27943,-8.60468 c 0.43467,-13.38504 -2.89221,-24.02245 -10.80934,-31.45239 -8.08037,-7.27428 -20.44071,-11.17499 -37.86332,-11.69142 -18.22216,-0.54012 -36.44741,-1.05092 -54.67569,-1.52967 l -1.86754,71.07999 c 4.77495,0.12548 9.54994,0.25318 14.32497,0.38304 l 1.56435,-57.53211 c 13.47198,0.36622 26.94266,0.74959 40.41202,1.14899 11.65925,0.34573 20.54971,2.37529 26.16263,6.85696 5.77322,4.48716 8.59141,11.27594 8.24309,22.2712 l -0.27259,8.60488 c -0.3483,10.995 -3.58738,17.59168 -9.61005,21.71008 -5.86418,4.12384 -14.82716,5.60107 -26.44193,5.25654 -21.79757,-0.64658 -43.59394,-1.25094 -65.38903,-1.80832 l -0.0937,3.66561 c 21.78983,0.55727 43.58121,1.1615 65.37405,1.80796 11.93039,0.3539 21.68643,-1.09884 28.68919,-5.98384 6.83756,-4.7299 10.766,-12.89944 11.13685,-24.53154 l 0.27434,-8.60483 c 0.37087,-11.6328 -3.03315,-20.03566 -9.58545,-25.18624 -6.70597,-5.31415 -16.3974,-7.36845 -28.37867,-7.72372 -14.69703,-0.4358 -29.39575,-0.85251 -44.09612,-1.2487 l -1.55099,57.53244 c -2.38806,-0.0644 -4.77612,-0.12823 -7.16417,-0.19153 l 1.68933,-63.74853 c 17.05133,0.4517 34.10016,0.93131 51.14646,1.43659 16.93916,0.50211 28.34342,4.21322 35.49042,10.65903 6.98406,6.60173 10.03532,15.95307 9.62388,28.70081 l -0.27771,8.60473 c -0.41144,12.74774 -4.05488,21.88077 -11.417,28.02778 -7.51807,5.98413 -19.06767,8.96769 -35.9237,8.46782 -21.73181,-0.64446 -43.46171,-1.2469 -65.18962,-1.80262 l -0.34635,13.54686 c 21.76146,0.55664 43.52591,1.16021 65.29326,1.80598 21.13179,0.62691 36.36533,-3.35174 46.50812,-11.79746 10.14695,-8.60423 14.8806,-21.52664 15.41771,-37.77989 l 0.28435,-8.60452 c 0.5371,-16.25268 -3.33649,-29.46266 -12.95499,-38.70674 z"
         style="fill:#ffffff;fill-rule:nonzero;stroke-width:5.97845;stroke-miterlimit:4;stroke-dasharray:none"
         id="path851"
         inkscape:original-d="m 616.98038,-227.93001 c -9.88447,-8.76849 -25.03004,-13.23244 -46.23383,-13.23244 h -65.5245 v 80.98891 h 3.66682 v -77.32209 h 61.85768 c 20.72551,0 34.91452,4.30453 43.84243,12.27588 8.92791,8.13077 13.07301,19.92837 13.07301,35.55222 v 8.60906 c 0,15.62384 -4.1451,27.42144 -13.07301,35.55222 -8.92791,7.97135 -23.11692,12.27588 -43.84243,12.27588 h -61.85768 v -6.21766 h 61.69825 c 17.37755,0 29.81285,-3.50739 38.10306,-10.52218 8.13078,-7.17421 11.7976,-17.6964 11.7976,-31.08826 v -8.60906 c 0,-13.39187 -3.66682,-23.91405 -11.7976,-31.08827 -8.29021,-7.01479 -20.72551,-10.52218 -38.10306,-10.52218 h -54.52403 v 71.10444 h 14.34843 v -57.55314 h 40.33503 c 11.63817,0 20.56609,1.75369 26.30546,6.05822 5.8988,4.30453 8.92791,11.00046 8.92791,22.00093 v 8.60906 c 0,11.00046 -3.02911,17.69639 -8.92791,22.00092 -5.73937,4.30453 -14.66729,6.05823 -26.30546,6.05823 h -65.5245 v 3.66682 h 65.5245 c 11.95703,0 21.68207,-1.7537 28.53744,-6.85536 6.69593,-4.94224 10.36275,-13.23244 10.36275,-24.87061 v -8.60906 c 0,-11.63817 -3.66682,-19.92838 -10.36275,-24.87061 -6.85537,-5.10167 -16.58041,-6.85537 -28.53744,-6.85537 H 526.7447 v 57.55315 h -7.17422 v -63.7708 h 51.01664 c 16.89927,0 28.37801,3.34797 35.71165,9.56562 7.17422,6.37708 10.52219,15.62385 10.52219,28.37801 v 8.60906 c 0,12.75416 -3.34797,22.00092 -10.52219,28.378 -7.33364,6.21765 -18.81238,9.56562 -35.71165,9.56562 h -65.36507 v 13.5513 h 65.5245 c 21.20379,0 36.34936,-4.46396 46.23383,-13.23244 9.88448,-8.92792 14.18901,-22.00093 14.18901,-38.26248 v -8.60906 c 0,-16.26156 -4.30453,-29.33457 -14.18901,-38.26248 z"
         inkscape:path-effect="#path-effect858" />
      <path
         d="m 699.83666,-131.62444 c 9.37864,0.34273 20.18909,0.74421 30.81546,-2.36257 5.63753,-1.70072 11.63783,-4.50262 16.30101,-9.74703 4.66317,-5.24439 7.33612,-12.47988 7.63331,-20.12644 0.29722,-7.64689 -1.80647,-15.06763 -6.05962,-20.65662 -4.25929,-5.42968 -10.03509,-8.84151 -15.549,-10.80568 -6.77098,-2.49041 -13.60994,-3.22521 -20.14762,-3.46732 -5.47663,-0.14964 -10.95335,-0.29726 -16.43018,-0.44279 -6.85514,-0.24872 -14.66663,-0.68795 -20.67459,-2.33532 -2.84818,-0.73864 -5.20154,-1.93782 -6.74653,-3.42757 -1.54497,-1.48973 -2.44677,-3.11641 -2.35796,-5.66573 0.0943,-2.70866 0.94768,-4.27424 2.59385,-5.65246 1.64613,-1.37819 4.07394,-2.25034 7.13487,-2.93994 5.95845,-1.22588 13.7771,-0.94607 20.80182,-0.69118 8.19363,0.29731 16.38675,0.59929 24.57936,0.90569 l 0.50636,-13.54198 c -8.78301,-0.32851 -17.56678,-0.65194 -26.35129,-0.96998 -8.62646,-0.31233 -19.02912,-0.0449 -27.76707,2.8417 -4.21383,1.60786 -8.12373,3.70614 -11.1127,6.95361 -2.8294,3.25307 -4.57741,7.65983 -4.75679,12.91811 -0.17936,5.25798 1.26392,9.77409 3.86514,13.05366 2.75531,3.44451 6.50434,5.80739 10.593,7.5452 8.49974,3.32665 18.85005,4.01447 27.45397,4.32592 2.60296,0.0942 5.20589,0.18892 7.80881,0.28408 8.44802,0.30886 18.46687,1.15946 26.00864,4.31649 3.76996,1.57812 7.04286,3.61701 9.17579,6.25108 2.12688,2.79342 3.27267,6.18763 3.09583,10.8077 -0.17683,4.61999 -1.57854,7.91681 -4.06893,10.53407 -2.33128,2.62337 -5.59239,4.57351 -9.47086,6.02263 -7.90203,2.57295 -17.95051,2.83831 -26.21999,2.53603 -16.64899,-0.60858 -33.29697,-1.19806 -49.94389,-1.76633 1.025,-2.03881 2.0503,-4.07753 3.0759,-6.11618 15.0613,0.51634 30.12325,1.04993 45.18581,1.59921 5.73198,0.0495 13.68536,0.50171 20.75044,-0.98848 3.37145,-0.67159 6.60227,-1.82636 9.22102,-3.64185 2.46557,-1.98076 4.17258,-4.94739 4.31172,-8.61152 0.13914,-3.66428 -1.3443,-6.59228 -3.66131,-8.59445 -2.47019,-2.16745 -5.6142,-3.40258 -8.93581,-4.16499 -4.74391,-1.13478 -9.99455,-1.4889 -14.77447,-1.66452 -3.34562,-0.12292 -6.69125,-0.24508 -10.03691,-0.36646 -3.66621,-0.0798 -7.33241,-0.15872 -10.99861,-0.23665 -6.69109,-0.23929 -13.68431,-0.96465 -20.14483,-3.26305 -5.19703,-1.93545 -10.36297,-4.82499 -14.02603,-9.73518 -3.82783,-4.75617 -5.68156,-11.3593 -5.45036,-18.2107 0.23659,-7.0111 2.52627,-13.31447 6.68215,-17.95892 3.99073,-4.49054 9.36116,-7.17718 14.53517,-8.75216 9.37306,-2.70539 19.12546,-2.51843 27.91292,-2.20106 9.42623,0.34044 18.85152,0.68711 28.27587,1.03961 l 0.13701,-3.66429 c -9.42586,-0.35258 -18.85271,-0.6993 -28.28056,-1.03981 -8.789,-0.31743 -19.02255,-0.52172 -29.04749,2.48067 -5.65969,1.71792 -11.6756,4.54244 -16.33213,9.8086 -4.65662,5.26628 -7.2964,12.51527 -7.55304,20.16386 -0.25663,7.64808 1.89072,15.05836 6.16987,20.62677 4.2846,5.40913 10.07102,8.79824 15.58574,10.74433 6.77292,2.46843 13.60503,3.18784 20.13603,3.421 5.47088,0.14214 10.94177,0.28643 16.41268,0.43278 1.22123,0.0445 2.44246,0.0892 3.66368,0.13392 5.2577,0.19264 11.30266,0.57578 16.20581,1.71647 3.1618,0.7563 5.67427,1.8081 7.37205,3.30796 1.6978,1.49986 2.59294,3.12918 2.49052,5.83752 -0.10241,2.70835 -1.12392,4.42465 -2.92894,5.79249 -1.81101,1.52714 -4.55873,2.54061 -7.76556,3.05896 -6.2644,1.36084 -14.06594,1.07357 -19.79298,0.86472 -15.8608,-0.5784 -31.72106,-1.13941 -47.58074,-1.6812 -2.16983,4.44569 -4.33827,8.89174 -6.50529,13.33815 18.49872,0.62622 36.99893,1.27892 55.50058,1.95521 8.42707,0.30803 18.95109,0.0603 27.50038,-2.80682 4.36125,-1.59021 8.26459,-3.6752 11.09772,-6.91726 2.83301,-3.24192 4.75567,-7.63559 4.9577,-12.89265 0.20203,-5.2574 -1.37814,-9.78511 -3.96464,-13.0751 -2.5803,-3.44917 -6.31946,-5.82517 -10.56797,-7.4216 -8.32738,-3.5062 -18.673,-4.20936 -27.28154,-4.52409 -2.60334,-0.0952 -5.2067,-0.1899 -7.81008,-0.28414 -8.44552,-0.30572 -18.63338,-1.14723 -26.1832,-4.28158 -3.78156,-1.40829 -6.89877,-3.59003 -9.0435,-6.21633 -2.13915,-2.78553 -3.46032,-6.18101 -3.30188,-10.80165 0.15846,-4.62087 1.70943,-7.91749 4.03798,-10.54927 2.32844,-2.63164 5.59373,-4.59254 9.64163,-6.04636 7.76754,-2.60087 17.84831,-2.87988 26.31389,-2.57339 7.61195,0.27559 15.22336,0.55522 22.83425,0.8387 l -0.23137,6.21341 c -7.0235,-0.26158 -14.0474,-0.5199 -21.07172,-0.77478 -7.03148,-0.0956 -15.00572,-0.54071 -21.76894,0.81658 -3.22117,0.68413 -6.29895,1.8526 -8.60038,3.68681 -2.30701,1.99356 -3.683,4.81729 -3.80449,8.32268 -0.12149,3.50533 1.05551,6.41758 3.38121,8.41286 2.16074,2.14914 4.99205,3.36483 8.31261,4.27956 6.63936,1.82896 14.61412,2.11463 21.46843,2.36332 5.10391,0.132 10.20775,0.26581 15.31153,0.40138 6.69637,0.24764 13.69318,0.98816 20.15073,3.30688 5.19413,1.95172 10.19106,4.85498 13.99074,9.78765 3.64663,4.76744 5.62302,11.38502 5.35774,18.23549 -0.27143,7.00934 -2.74708,13.29566 -6.74913,17.92781 -4.15512,4.46685 -9.35449,7.14005 -14.66873,8.69378 -9.65538,2.66541 -19.83813,2.44645 -28.90016,2.11496 -19.66237,-0.71927 -39.32276,-1.41193 -58.98108,-2.0745 -0.62403,1.20196 -1.24795,2.40395 -1.87176,3.60597 19.97231,0.67134 39.94697,1.37385 59.92392,2.10389 z m 54.14793,-61.93519 1.84795,-47.63287 c -1.22452,-0.0475 -2.44906,-0.095 -3.67362,-0.14232 l -1.6315,42.21672 c -2.3548,-1.04829 -4.70991,-2.09624 -7.06533,-3.14385 l 1.50902,-39.34972 c -4.79201,-0.18385 -9.58427,-0.36627 -14.37679,-0.54721 l -1.4009,37.12039 c 1.20275,0.5772 2.40542,1.1545 3.60799,1.73189 l 1.32826,-35.04905 c 2.39582,0.0908 4.79158,0.18203 7.18728,0.27358 l -1.45455,38.07549 c 4.70867,2.14761 9.41605,4.29661 14.12219,6.44695 z"
         style="fill:#ffffff;fill-rule:nonzero;stroke-width:5.97845;stroke-miterlimit:4;stroke-dasharray:none"
         id="path853"
         inkscape:original-d="m 701.95482,-129.56355 c 9.40619,0 20.24723,0 30.76941,-3.5074 5.57995,-1.91312 11.47875,-4.94223 15.9427,-10.36275 4.46396,-5.42052 6.85536,-12.75416 6.85536,-20.40666 0,-7.65249 -2.3914,-14.98614 -6.85536,-20.40665 -4.46395,-5.2611 -10.36275,-8.44964 -15.9427,-10.20333 -6.85536,-2.23198 -13.71072,-2.71026 -20.24723,-2.71026 l -16.42098,0.15943 c -6.85536,0 -14.66728,-0.15943 -20.72551,-1.59427 -2.86968,-0.63771 -5.26109,-1.7537 -6.85536,-3.18854 -1.59427,-1.43485 -2.55083,-3.02912 -2.55083,-5.57995 0,-2.71026 0.79713,-4.30453 2.3914,-5.73937 1.59427,-1.43484 3.98568,-2.39141 7.01479,-3.18854 5.8988,-1.43484 13.71072,-1.43484 20.72551,-1.43484 h 24.55176 v -13.5513 h -26.30546 c -8.60905,0 -18.97181,0.63771 -27.58087,3.82625 -4.1451,1.75369 -7.97135,3.98567 -10.84103,7.33364 -2.71026,3.34797 -4.30453,7.81192 -4.30453,13.07301 0,5.2611 1.59427,9.72505 4.30453,12.91359 2.86968,3.34797 6.69593,5.57995 10.84103,7.17422 8.60906,3.02911 18.97182,3.34796 27.58087,3.34796 h 7.81193 c 8.44963,0 18.49353,0.47828 26.14603,3.34797 3.82624,1.43484 7.17421,3.34797 9.40619,5.8988 2.23198,2.71026 3.50739,6.05823 3.50739,10.68161 0,4.62338 -1.27541,7.97135 -3.66682,10.68161 -2.23198,2.71026 -5.42052,4.78281 -9.24676,6.37708 -7.81193,2.86968 -17.85583,3.50739 -26.14603,3.50739 h -50.06008 l 2.86969,-6.21765 h 45.27726 c 5.73938,-0.15943 13.71073,0 20.72551,-1.7537 3.34797,-0.79713 6.53651,-2.07255 9.08734,-3.98567 2.39141,-2.07255 3.98568,-5.10167 3.98568,-8.76849 0,-3.66682 -1.59427,-6.53651 -3.98568,-8.44963 -2.55083,-2.07255 -5.73937,-3.18854 -9.08734,-3.82625 -4.78281,-0.95656 -10.0439,-1.11599 -14.82671,-1.11599 h -10.0439 l -11.00046,0.15943 c -6.69594,0 -13.71072,-0.47828 -20.24723,-2.55083 -5.26109,-1.7537 -10.52218,-4.46396 -14.34843,-9.24677 -3.98568,-4.62338 -6.05823,-11.15989 -6.05823,-18.01525 0,-7.01479 2.07255,-13.39187 6.05823,-18.17468 3.82625,-4.62338 9.08734,-7.49307 14.189,-9.24676 9.24677,-3.02912 18.97182,-3.18854 27.7403,-3.18854 h 28.21858 v -3.66682 H 692.3892 c -8.76848,0 -18.97181,0.15942 -28.85629,3.50739 -5.57994,1.91312 -11.47874,4.94224 -15.9427,10.36275 -4.46395,5.42052 -6.85536,12.75417 -6.85536,20.40666 0,7.6525 2.39141,14.98614 6.85536,20.40666 4.46396,5.26109 10.36276,8.44963 15.9427,10.20333 6.85536,2.23197 13.71073,2.71025 20.24723,2.71025 l 16.42098,-0.15942 h 3.66683 c 5.26109,0 11.31931,0.15942 16.26155,1.11599 3.18854,0.6377 5.73937,1.59427 7.49307,3.02911 1.7537,1.43484 2.71026,3.02911 2.71026,5.73937 0,2.71026 -0.95656,4.46396 -2.71026,5.8988 -1.7537,1.59427 -4.46396,2.71026 -7.6525,3.34797 -6.21765,1.59427 -14.02957,1.59427 -19.76895,1.59427 h -47.66867 l -6.05823,13.55129 h 55.64003 c 8.44963,0 18.97181,-0.6377 27.42144,-3.82625 4.30453,-1.75369 8.13078,-3.98567 10.84104,-7.33364 2.71026,-3.34796 4.46395,-7.81192 4.46395,-13.07301 0,-5.26109 -1.75369,-9.72505 -4.46395,-12.91359 -2.71026,-3.34797 -6.53651,-5.57994 -10.84104,-7.01479 -8.44963,-3.18854 -18.81238,-3.50739 -27.42144,-3.50739 h -7.81193 c -8.44963,0 -18.65295,-0.47828 -26.30545,-3.34797 -3.82625,-1.27541 -7.01479,-3.34796 -9.24677,-5.8988 -2.23197,-2.71026 -3.66682,-6.05822 -3.66682,-10.68161 0,-4.62338 1.43485,-7.97135 3.66682,-10.6816 2.23198,-2.71026 5.42052,-4.78281 9.4062,-6.37709 7.65249,-2.86968 17.69639,-3.50739 26.14602,-3.50739 h 22.79807 v 6.21765 h -21.04437 c -7.01479,0.15943 -14.98614,0 -21.68207,1.59427 -3.18854,0.79714 -6.21765,2.07256 -8.44963,3.98568 -2.23198,2.07255 -3.5074,4.94224 -3.5074,8.44963 0,3.50739 1.27542,6.37708 3.66683,8.2902 2.23197,2.07256 5.10166,3.18854 8.44963,3.98568 6.69593,1.59427 14.66728,1.59427 21.52264,1.59427 l 15.30499,-0.15943 c 6.69594,0 13.71073,0.47828 20.24723,2.55083 5.26109,1.7537 10.36276,4.46396 14.34843,9.24677 3.82625,4.62338 6.05823,11.15989 6.05823,18.01525 0,7.01479 -2.23198,13.39187 -6.05823,18.17468 -3.98567,4.62338 -9.08734,7.49307 -14.34843,9.24677 -9.56562,3.02911 -19.76894,3.18854 -28.85628,3.18854 h -59.14742 l -1.7537,3.66682 z m 51.81378,-63.93023 v -47.66867 h -3.66682 v 42.24815 l -7.17422,-2.86968 v -39.37847 h -14.34843 v 37.14649 l 3.66682,1.59427 v -35.07394 h 7.17422 v 38.10305 z" />
    </g>
    <rect
       style="fill:url(#linearGradient923);fill-opacity:1;fill-rule:nonzero;stroke:url(#linearGradient915);stroke-width:5.70600001;stroke-linecap:round;stroke-miterlimit:4;stroke-dasharray:none;stroke-opacity:1;opacity:1"
       id="rect862"
       width="381.75595"
       height="72.571426"
       x="-374.19644"
       y="-185.96429"
       ry="2.5431327e-06" />
    <rect
       style="fill:none;fill-opacity:1;fill-rule:nonzero;stroke:url(#linearGradient1089);stroke-width:5.706;stroke-linecap:round;stroke-miterlimit:4;stroke-dasharray:none;stroke-opacity:1"
       id="rect862-8"
       width="381.75595"
       height="72.571426"
       x="-896.18152"
       y="-186.72023"
       ry="2.5431327e-06" />
    <g
       id="g2194"
       inkscape:export-xdpi="103"
       inkscape:export-ydpi="103"
       transform="translate(482.15423,132.56569)">
      <path
         id="rect862-8-6"
         style="fill:none;fill-opacity:1;fill-rule:nonzero;stroke:url(#linearGradient2164);stroke-width:10.5833;stroke-linecap:round;stroke-miterlimit:4;stroke-dasharray:none;stroke-opacity:0.99;filter:url(#filter1922)"
         d="m -1377.7231,-471.50743 h 381.7559 c 1e-5,0 1e-5,0 1e-5,0 v 72.57142 c 0,0 0,0 -1e-5,0 h -381.7559 c 0,0 0,0 0,0 v -72.57142 c 0,0 0,0 0,0 z" />
      <path
         style="fill:none;fill-opacity:1;fill-rule:nonzero;stroke:url(#linearGradient2172);stroke-width:7.9375;stroke-linecap:round;stroke-miterlimit:4;stroke-dasharray:none;stroke-opacity:0.993333;filter:url(#filter2026)"
         d="m -1377.7257,-471.50722 h 381.76106 v 0 0 c 0,0.189 0,48.381 0,48.381 v 24.19 0 h -254.50106 v 0 c -0.13,0 -127.26,0 -127.26,0 0,-0.188 0,-48.381 0,-48.381 v 0 z"
         id="path1769" />
      <path
         style="fill:none;fill-opacity:1;fill-rule:nonzero;stroke:url(#linearGradient2180);stroke-width:6.61458;stroke-linecap:round;stroke-miterlimit:4;stroke-dasharray:none;stroke-opacity:0.996667;filter:url(#filter2086)"
         d="m -1377.7247,-471.50772 h 381.75907 v 0 0.001 c 0,0.094 0,24.19 0,24.19 v 48.381 0 h -127.24907 v 0 c -0.25,0 -254.51,0 -254.51,-10e-4 0,-0.094 0,-24.19 0,-24.19 v 0 z"
         id="path1771" />
      <path
         id="rect862-8-6-6"
         style="fill:none;fill-opacity:1;fill-rule:nonzero;stroke:url(#linearGradient2188);stroke-width:5.706;stroke-linecap:round;stroke-miterlimit:4;stroke-dasharray:none;stroke-opacity:1"
         d="m -1377.7231,-471.50743 h 381.75591 c 0,0 0,0 0,0 v 72.57142 c 0,0 0,0 0,0 h -381.75591 c 0,0 0,0 0,0 v -72.57142 c 0,0 0,0 0,0 z" />
    </g>
    <g
       id="g2886"
       inkscape:export-xdpi="103"
       inkscape:export-ydpi="103">
      <path
         id="rect2226"
         style="opacity:1;fill:none;fill-opacity:1;fill-rule:nonzero;stroke:url(#linearGradient2856);stroke-width:21.1667;stroke-linecap:round;stroke-miterlimit:4;stroke-dasharray:none;stroke-opacity:0.996667;filter:url(#filter2684)"
         d="m -1443.2555,-534.30729 h 436.1839 c 0,0 0,0 0,0 v 91.94071 c 0,0 0,0 0,0 h -436.1839 c 0,0 0,0 0,0 v -91.94071 c 0,0 0,0 0,0 z" />
      <path
         style="fill:none;fill-opacity:1;fill-rule:nonzero;stroke:url(#linearGradient2864);stroke-width:18.5208;stroke-linecap:round;stroke-miterlimit:4;stroke-dasharray:none;stroke-opacity:0.996667;filter:url(#filter2780)"
         d="m -1443.2535,-534.30744 h 436.18 v 0 0 c 0,0.06 0,91.941 0,91.941 v 0 0 c -0.28,0 -436.18,0 -436.18,0 v 0 z"
         id="path2375" />
      <path
         style="fill:none;fill-opacity:1;fill-rule:nonzero;stroke:url(#linearGradient2872);stroke-width:13.2292;stroke-linecap:round;stroke-miterlimit:4;stroke-dasharray:none;stroke-opacity:0.996667;filter:url(#filter2808)"
         d="m -1443.2586,-534.30744 h 436.19 v 0 0 c 0,0.12 0,91.941 0,91.941 v 0 0 c -0.14,0 -436.19,0 -436.19,0 v 0 z"
         id="path2377" />
      <path
         id="rect2226-3"
         style="fill:none;fill-opacity:1;fill-rule:nonzero;stroke:url(#linearGradient2880);stroke-width:10.5833;stroke-linecap:round;stroke-miterlimit:4;stroke-dasharray:none;stroke-opacity:0.996667"
         d="m -1443.2555,-534.3073 h 436.1839 c 0,0 0,0 0,0 v 91.94071 c 0,0 0,0 0,0 h -436.1839 c 0,0 0,0 0,0 v -91.94071 c 0,0 0,0 0,0 z" />
    </g>
  </g>
</svg>
